<svg width="251" height="253" viewBox="0 0 251 253" fill="none" xmlns="http://www.w3.org/2000/svg">
  <mask id="mask0_4_2" style="mask-type:luminance" maskUnits="userSpaceOnUse" x="18" y="51" width="107" height="98">
    <path d="M19.091 51.7052H124.456V147.696H19.091V51.7052Z" fill="white" stroke="white"/>
  </mask>
  <g mask="url(#mask0_4_2)">
    <path d="M90.1989 120.161V119.84L89.9068 119.706L46.6037 99.9123L89.9067 80.1308L90.1989 79.9973V79.676V66.2609V65.4629L89.4809 65.8109L31.2686 94.023L30.9867 94.1597V94.473V105.358V105.671L31.2686 105.808L89.4809 134.02L90.1989 134.368V133.57V120.161ZM26.9199 51.8566H123.615L96.8678 147.968H26.9199C22.6186 147.968 19.097 144.325 19.097 139.792V60.0455C19.097 55.4994 22.6191 51.8566 26.9199 51.8566Z" fill="#5DD62C" stroke="black"/>
  </g>
  <mask id="mask1_4_2" style="mask-type:luminance" maskUnits="userSpaceOnUse" x="123" y="0" width="107" height="99">
    <path d="M123.908 0.890625H229.455V97.5507H123.908V0.890625Z" fill="white" stroke="white"/>
  </mask>
  <g mask="url(#mask1_4_2)">
    <path d="M217.118 55.2593L217.402 55.1234V54.8082V43.1662V42.8511L217.118 42.7151L158.906 14.8817L158.19 14.5395V15.3328V28.7415V29.0656L158.486 29.198L202.737 48.9903L158.486 68.7765L158.19 68.9088V69.2329V82.6417V83.435L158.906 83.0928L217.118 55.2593ZM221.469 97.046H124.931L151.678 0.934806H221.469C225.764 0.934806 229.286 4.57753 229.286 9.11739V88.8634C229.286 93.4032 225.764 97.046 221.469 97.046Z" fill="#202020" stroke="black"/>
  </g>
  <path d="M6.5852 181.969L6.58505 181.969L6.59089 181.981L17.2365 202.804L17.3758 203.076H17.6817H17.8995H18.3995V202.576V182.157C18.3995 181.842 18.4743 181.696 18.5368 181.629C18.5936 181.568 18.7123 181.496 18.9882 181.496H23.3674C23.6517 181.496 23.7786 181.57 23.8397 181.634C23.9045 181.701 23.9804 181.846 23.9804 182.157V215.146C23.9804 215.461 23.904 215.604 23.8404 215.67C23.7802 215.733 23.6538 215.807 23.3674 215.807H19.5205C19.2148 215.807 18.9775 215.735 18.7882 215.612C18.5976 215.487 18.4233 215.289 18.2792 214.983L18.2754 214.975L18.2713 214.967L7.74666 194.548L7.60702 194.277H7.30223H7.08447H6.58447V194.777V215.146C6.58447 215.465 6.50922 215.609 6.44779 215.675C6.39196 215.734 6.27377 215.807 5.99572 215.807H1.61649C1.32602 215.807 1.20076 215.732 1.14197 215.671C1.07935 215.606 1.00354 215.463 1.00354 215.146V182.157C1.00354 181.844 1.07888 181.7 1.14267 181.633C1.20236 181.57 1.32816 181.496 1.61649 181.496H5.56021C6.18048 181.496 6.45445 181.696 6.5852 181.969Z" fill="#0F0F0F" stroke="black"/>
  <path d="M51.9548 215.807H34.7282C34.4378 215.807 34.3125 215.732 34.2537 215.671C34.1911 215.606 34.1153 215.463 34.1153 215.146V182.157C34.1153 181.844 34.1906 181.7 34.2544 181.633C34.3141 181.57 34.4399 181.496 34.7282 181.496H51.9548C52.2052 181.496 52.3099 181.564 52.3612 181.621C52.4216 181.689 52.4952 181.838 52.4952 182.157V185.867C52.4952 186.19 52.4212 186.338 52.3619 186.404C52.3116 186.46 52.2075 186.528 51.9548 186.528H40.9463C40.6633 186.528 40.3578 186.595 40.1253 186.82C39.8896 187.048 39.8172 187.352 39.8172 187.634V194.777C39.8172 195.058 39.8896 195.362 40.1253 195.59C40.3578 195.815 40.6633 195.883 40.9463 195.883H49.9467C50.2309 195.883 50.3578 195.957 50.4189 196.02C50.4837 196.088 50.5596 196.233 50.5596 196.544V200.279C50.5596 200.582 50.4848 200.718 50.4232 200.781C50.3632 200.842 50.2353 200.915 49.9467 200.915H40.9463C40.6633 200.915 40.3578 200.982 40.1253 201.207C39.8896 201.435 39.8172 201.739 39.8172 202.021V209.668C39.8172 209.95 39.8896 210.254 40.1253 210.482C40.3578 210.707 40.6633 210.774 40.9463 210.774H51.9548C52.2099 210.774 52.3155 210.842 52.3654 210.896C52.4224 210.959 52.4952 211.099 52.4952 211.41V215.146C52.4952 215.468 52.4212 215.617 52.3619 215.683C52.3116 215.739 52.2075 215.807 51.9548 215.807Z" fill="#0F0F0F" stroke="black"/>
  <mask id="path-7-inside-1_4_2" fill="white">
    <path d="M64.994 216.307H59.7921C59.4352 216.307 59.1873 216.193 59.0421 215.953C58.909 215.72 58.909 215.436 59.0421 215.095L67.2199 198.235L59.3082 182.207C59.1752 181.904 59.1752 181.627 59.3082 181.374C59.4534 181.122 59.7014 180.996 60.0583 180.996H65.1149C65.9859 180.996 66.5545 181.387 66.8328 182.157L71.841 193.944H72.0588L76.9945 182.157C77.3453 181.387 77.9139 180.996 78.6881 180.996H83.8416C84.1924 180.996 84.4525 181.135 84.6158 181.4C84.7731 181.671 84.7851 181.955 84.64 182.258L76.6316 198.235L84.7851 215.045C84.9606 215.417 84.9787 215.72 84.8335 215.953C84.7005 216.193 84.4464 216.307 84.0593 216.307H78.7849C78.059 216.307 77.551 215.941 77.2606 215.196L72.0588 203.333H71.841L66.5908 215.196C66.2642 215.941 65.7319 216.307 64.994 216.307Z"/>
  </mask>
  <path d="M64.994 216.307H59.7921C59.4352 216.307 59.1873 216.193 59.0421 215.953C58.909 215.72 58.909 215.436 59.0421 215.095L67.2199 198.235L59.3082 182.207C59.1752 181.904 59.1752 181.627 59.3082 181.374C59.4534 181.122 59.7014 180.996 60.0583 180.996H65.1149C65.9859 180.996 66.5545 181.387 66.8328 182.157L71.841 193.944H72.0588L76.9945 182.157C77.3453 181.387 77.9139 180.996 78.6881 180.996H83.8416C84.1924 180.996 84.4525 181.135 84.6158 181.4C84.7731 181.671 84.7851 181.955 84.64 182.258L76.6316 198.235L84.7851 215.045C84.9606 215.417 84.9787 215.72 84.8335 215.953C84.7005 216.193 84.4464 216.307 84.0593 216.307H78.7849C78.059 216.307 77.551 215.941 77.2606 215.196L72.0588 203.333H71.841L66.5908 215.196C66.2642 215.941 65.7319 216.307 64.994 216.307Z" fill="#0F0F0F"/>
  <path d="M59.0421 215.953L58.1733 216.448L58.1798 216.46L58.1866 216.471L59.0421 215.953ZM59.0421 215.095L58.1423 214.659L58.125 214.694L58.1106 214.731L59.0421 215.095ZM67.2199 198.235L68.1196 198.671L68.3332 198.231L68.1166 197.792L67.2199 198.235ZM59.3082 182.207L58.3927 182.609L58.4017 182.63L58.4115 182.65L59.3082 182.207ZM59.3082 181.374L58.4414 180.876L58.4322 180.892L58.4236 180.908L59.3082 181.374ZM66.8328 182.157L65.8923 182.497L65.9016 182.523L65.9124 182.548L66.8328 182.157ZM71.841 193.944L70.9207 194.335L71.1794 194.944H71.841V193.944ZM72.0588 193.944V194.944H72.7242L72.9812 194.33L72.0588 193.944ZM76.9945 182.157L76.0845 181.742L76.0781 181.756L76.0721 181.771L76.9945 182.157ZM84.6158 181.4L85.481 180.898L85.4742 180.886L85.4671 180.875L84.6158 181.4ZM84.64 182.258L85.534 182.706L85.5379 182.698L85.5418 182.69L84.64 182.258ZM76.6316 198.235L75.7376 197.787L75.5166 198.227L75.7318 198.671L76.6316 198.235ZM84.7851 215.045L85.6898 214.618L85.6849 214.608L84.7851 215.045ZM84.8335 215.953L83.9843 215.425L83.9712 215.446L83.9592 215.468L84.8335 215.953ZM77.2606 215.196L78.1923 214.833L78.1848 214.813L78.1764 214.794L77.2606 215.196ZM72.0588 203.333L72.9746 202.932L72.7122 202.333H72.0588V203.333ZM71.841 203.333V202.333H71.1901L70.9266 202.928L71.841 203.333ZM66.5908 215.196L65.6764 214.791L65.675 214.794L66.5908 215.196ZM64.994 215.307H59.7921V217.307H64.994V215.307ZM59.7921 215.307C59.715 215.307 59.718 215.294 59.7615 215.314C59.7845 215.325 59.8123 215.342 59.8397 215.367C59.867 215.391 59.8859 215.416 59.8975 215.435L58.1866 216.471C58.5688 217.102 59.2087 217.307 59.7921 217.307V215.307ZM59.9109 215.458C59.9214 215.476 59.9302 215.498 59.9358 215.52C59.9414 215.542 59.9423 215.557 59.9423 215.564C59.9423 215.571 59.9415 215.566 59.9453 215.548C59.9492 215.53 59.9572 215.501 59.9736 215.459L58.1106 214.731C57.9099 215.245 57.8416 215.866 58.1733 216.448L59.9109 215.458ZM59.9418 215.531L68.1196 198.671L66.3201 197.798L58.1423 214.659L59.9418 215.531ZM68.1166 197.792L60.2049 181.765L58.4115 182.65L66.3232 198.677L68.1166 197.792ZM60.2238 181.805C60.2024 181.756 60.2084 181.748 60.2084 181.772C60.2084 181.783 60.207 181.797 60.2033 181.812C60.1996 181.826 60.1951 181.836 60.1928 181.841L58.4236 180.908C58.1247 181.475 58.159 182.078 58.3927 182.609L60.2238 181.805ZM60.1751 181.873C60.1675 181.886 60.153 181.907 60.1294 181.93C60.1056 181.953 60.0796 181.97 60.0552 181.983C60.007 182.007 59.9949 181.996 60.0583 181.996V179.996C59.4342 179.996 58.806 180.242 58.4414 180.876L60.1751 181.873ZM60.0583 181.996H65.1149V179.996H60.0583V181.996ZM65.1149 181.996C65.4004 181.996 65.5516 182.059 65.6344 182.115C65.7137 182.169 65.8105 182.27 65.8923 182.497L67.7732 181.817C67.5768 181.273 67.2502 180.794 66.7578 180.46C66.2691 180.128 65.7005 179.996 65.1149 179.996V181.996ZM65.9124 182.548L70.9207 194.335L72.7614 193.553L67.7531 181.766L65.9124 182.548ZM71.841 194.944H72.0588V192.944H71.841V194.944ZM72.9812 194.33L77.9169 182.543L76.0721 181.771L71.1364 193.558L72.9812 194.33ZM77.9044 182.571C78.0219 182.314 78.1466 182.182 78.2483 182.112C78.3444 182.046 78.4772 181.996 78.6881 181.996V179.996C78.1248 179.996 77.5861 180.141 77.1167 180.463C76.6529 180.781 76.3179 181.23 76.0845 181.742L77.9044 182.571ZM78.6881 181.996H83.8416V179.996H78.6881V181.996ZM83.8416 181.996C83.8842 181.996 83.8721 182.004 83.8344 181.984C83.8166 181.974 83.7998 181.962 83.7858 181.949C83.7721 181.936 83.7656 181.926 83.7644 181.924L85.4671 180.875C85.1013 180.281 84.4987 179.996 83.8416 179.996V181.996ZM83.7506 181.901C83.7546 181.908 83.7524 181.906 83.749 181.894C83.7455 181.883 83.7424 181.867 83.7418 181.849C83.7412 181.83 83.7433 181.817 83.7448 181.811C83.7461 181.805 83.7458 181.81 83.7382 181.826L85.5418 182.69C85.825 182.099 85.8096 181.465 85.481 180.898L83.7506 181.901ZM83.746 181.81L75.7376 197.787L77.5255 198.683L85.534 182.706L83.746 181.81ZM75.7318 198.671L83.8854 215.481L85.6849 214.608L77.5313 197.798L75.7318 198.671ZM83.8805 215.471C83.9053 215.523 83.9187 215.561 83.9256 215.585C83.9324 215.609 83.9316 215.615 83.9311 215.606C83.9305 215.595 83.9305 215.569 83.9391 215.533C83.9479 215.496 83.9633 215.459 83.9843 215.425L85.6828 216.481C86.088 215.83 85.9294 215.127 85.6898 214.618L83.8805 215.471ZM83.9592 215.468C83.9761 215.437 84.0017 215.403 84.0365 215.371C84.071 215.34 84.1043 215.32 84.1282 215.309C84.1704 215.29 84.1631 215.307 84.0593 215.307V217.307C84.6316 217.307 85.3264 217.126 85.7079 216.438L83.9592 215.468ZM84.0593 215.307H78.7849V217.307H84.0593V215.307ZM78.7849 215.307C78.5973 215.307 78.5035 215.262 78.4472 215.221C78.3846 215.176 78.2863 215.074 78.1923 214.833L76.3289 215.559C76.5253 216.063 76.8262 216.516 77.2717 216.84C77.7234 217.168 78.2466 217.307 78.7849 217.307V215.307ZM78.1764 214.794L72.9746 202.932L71.143 203.735L76.3448 215.598L78.1764 214.794ZM72.0588 202.333H71.841V204.333H72.0588V202.333ZM70.9266 202.928L65.6764 214.791L67.5052 215.601L72.7555 203.738L70.9266 202.928ZM65.675 214.794C65.5676 215.039 65.4573 215.153 65.3768 215.209C65.3018 215.261 65.1903 215.307 64.994 215.307V217.307C65.5355 217.307 66.0591 217.169 66.5165 216.852C66.9682 216.539 67.2874 216.097 67.5066 215.598L65.675 214.794Z" fill="black" mask="url(#path-7-inside-1_4_2)"/>
  <path d="M98.662 209.884L98.6619 209.884L98.6708 209.893C99.2916 210.524 100.234 210.774 101.374 210.774H105.003C106.177 210.774 107.146 210.528 107.76 209.888C108.377 209.244 108.625 208.245 108.625 207.018V182.157C108.625 181.842 108.699 181.696 108.762 181.629C108.819 181.568 108.937 181.496 109.213 181.496H113.641C113.958 181.496 114.103 181.571 114.17 181.633C114.23 181.69 114.302 181.808 114.302 182.081V207.346C114.302 210.121 113.56 212.189 112.146 213.635C110.746 215.067 108.76 215.807 106.116 215.807H100.334C97.651 215.807 95.6482 215.071 94.2555 213.66C92.8745 212.236 92.148 210.158 92.148 207.346V182.157C92.148 181.842 92.2228 181.696 92.2854 181.629C92.3421 181.568 92.4609 181.496 92.7367 181.496H97.2127C97.497 181.496 97.6239 181.57 97.685 181.634C97.7498 181.701 97.8257 181.846 97.8257 182.157V207.018C97.8257 208.239 98.059 209.238 98.662 209.884Z" fill="#0F0F0F" stroke="black"/>
  <path d="M129.962 209.871L129.962 209.872L129.971 209.88C130.651 210.524 131.79 210.774 133.218 210.774H135.71C137.108 210.774 138.227 210.492 138.92 209.793L138.922 209.791C139.612 209.088 139.888 207.891 139.888 206.362V205.706C139.888 204.493 139.405 203.521 138.44 202.847L138.438 202.846C137.529 202.219 136.407 201.857 135.1 201.75C133.898 201.638 132.595 201.428 131.196 201.128C129.799 200.818 128.501 200.422 127.308 199.942L127.305 199.94C126.207 199.506 125.251 198.633 124.458 197.254C123.692 195.908 123.29 194.14 123.29 191.925V190.006C123.29 187.239 124.038 185.166 125.469 183.72L125.47 183.719C126.903 182.258 128.904 181.496 131.549 181.496H136.799C139.47 181.496 141.494 182.259 142.926 183.719L142.928 183.72C144.358 185.166 145.106 187.239 145.106 190.006V191.041C145.106 191.356 145.03 191.5 144.966 191.566C144.906 191.629 144.779 191.702 144.493 191.702H140.017C139.726 191.702 139.601 191.628 139.542 191.567C139.48 191.502 139.404 191.358 139.404 191.041V190.713C139.404 189.269 139.143 188.109 138.454 187.452C137.786 186.791 136.656 186.528 135.226 186.528H133.17C131.699 186.528 130.535 186.818 129.872 187.551L129.872 187.551L129.866 187.557C129.539 187.931 129.326 188.441 129.191 189.04C129.056 189.644 128.992 190.373 128.992 191.218V192.253C128.992 193.278 129.434 194.107 130.285 194.691C131.106 195.254 132.282 195.574 133.754 195.704C136.691 195.971 139.293 196.585 141.559 197.532C142.665 198.037 143.62 198.938 144.4 200.278C145.165 201.594 145.566 203.304 145.566 205.428V207.296C145.566 210.07 144.818 212.15 143.386 213.609C141.966 215.056 139.972 215.807 137.331 215.807H131.597C128.951 215.807 126.951 215.056 125.518 213.609C124.099 212.151 123.363 210.071 123.363 207.296V206.211C123.363 205.896 123.438 205.75 123.5 205.683C123.557 205.622 123.676 205.549 123.952 205.549H128.428C128.712 205.549 128.839 205.624 128.9 205.687C128.965 205.755 129.041 205.9 129.041 206.211V206.64C129.041 208.063 129.291 209.204 129.962 209.871Z" fill="#0F0F0F" stroke="black"/>
  <path d="M184.046 209.888L184.046 209.888L184.053 209.881C184.646 209.238 184.887 208.243 184.887 207.018V190.284C184.887 189.068 184.647 188.075 184.05 187.443C183.438 186.789 182.469 186.528 181.29 186.528H175.556C175.28 186.528 174.982 186.601 174.76 186.834C174.541 187.062 174.475 187.36 174.475 187.634V209.668C174.475 209.942 174.541 210.24 174.76 210.469C174.982 210.701 175.28 210.774 175.556 210.774H181.29C182.464 210.774 183.433 210.528 184.046 209.888ZM188.434 183.693L188.434 183.694C189.847 185.127 190.589 187.187 190.589 189.956V207.346C190.589 210.121 189.847 212.188 188.434 213.634C187.014 215.068 185.027 215.807 182.403 215.807H169.386C169.096 215.807 168.971 215.732 168.912 215.671C168.849 215.606 168.773 215.463 168.773 215.146V182.157C168.773 181.844 168.849 181.7 168.913 181.633C168.972 181.57 169.098 181.496 169.386 181.496H182.403C185.025 181.496 187.013 182.246 188.434 183.693Z" fill="#0F0F0F" stroke="black"/>
  <path d="M218.04 215.807H200.814C200.523 215.807 200.398 215.732 200.339 215.671C200.276 215.606 200.201 215.463 200.201 215.146V182.157C200.201 181.844 200.276 181.7 200.34 181.633C200.399 181.57 200.525 181.496 200.814 181.496H218.04C218.291 181.496 218.395 181.564 218.447 181.621C218.507 181.689 218.581 181.838 218.581 182.157V185.867C218.581 186.19 218.507 186.338 218.447 186.404C218.397 186.46 218.293 186.528 218.04 186.528H207.032C206.749 186.528 206.443 186.595 206.211 186.82C205.975 187.048 205.903 187.352 205.903 187.634V194.777C205.903 195.058 205.975 195.362 206.211 195.59C206.443 195.815 206.749 195.883 207.032 195.883H216.032C216.316 195.883 216.443 195.957 216.504 196.02C216.569 196.088 216.645 196.233 216.645 196.544V200.279C216.645 200.582 216.57 200.718 216.509 200.781C216.449 200.842 216.321 200.915 216.032 200.915H207.032C206.749 200.915 206.443 200.982 206.211 201.207C205.975 201.435 205.903 201.739 205.903 202.021V209.668C205.903 209.95 205.975 210.254 206.211 210.482C206.443 210.707 206.749 210.774 207.032 210.774H218.04C218.295 210.774 218.401 210.842 218.451 210.896C218.508 210.959 218.581 211.099 218.581 211.41V215.146C218.581 215.468 218.507 215.617 218.447 215.683C218.397 215.739 218.293 215.807 218.04 215.807Z" fill="#0F0F0F" stroke="black"/>
  <path d="M233.313 215.054L233.31 215.039L233.307 215.025L225.153 182.137L225.151 182.128L225.148 182.119C225.045 181.76 225.115 181.65 225.132 181.63C225.16 181.595 225.286 181.496 225.708 181.496H230.668C230.914 181.496 231.062 181.563 231.162 181.655C231.269 181.754 231.375 181.932 231.435 182.249L231.435 182.249L231.436 182.257L236.977 209.264L237.059 209.664H237.467H237.66H238.068L238.15 209.264L243.691 182.257L243.693 182.248L243.694 182.238C243.746 181.922 243.847 181.749 243.95 181.654C244.046 181.565 244.196 181.496 244.459 181.496H249.419C249.793 181.496 249.912 181.589 249.945 181.63C249.977 181.669 250.043 181.796 249.972 182.147L241.82 215.025L241.82 215.025L241.819 215.032C241.742 215.36 241.629 215.546 241.517 215.65C241.414 215.744 241.273 215.807 241.048 215.807H234.128C233.855 215.807 233.694 215.736 233.589 215.643C233.479 215.546 233.372 215.371 233.313 215.054Z" fill="#0F0F0F" stroke="black"/>
  <path d="M18.6316 240.08L18.6316 240.08L18.6353 240.084C19.0987 240.557 19.3635 241.255 19.3635 242.258V248.896C19.3635 249.904 19.0993 250.611 18.6334 251.098C18.1717 251.568 17.4999 251.829 16.5489 251.829H11.6535V239.326H16.5489C17.4953 239.326 18.1677 239.596 18.6316 240.08ZM13.9359 250.507H16.1376C16.6015 250.507 17.0636 250.413 17.3852 250.084C17.7232 249.758 17.8231 249.265 17.8231 248.77V242.385C17.8231 241.881 17.7195 241.4 17.3851 241.071C17.0683 240.753 16.6133 240.648 16.1376 240.648H13.9359C13.7807 240.648 13.5738 240.689 13.4116 240.859C13.2532 241.024 13.2181 241.227 13.2181 241.375V249.78C13.2181 249.928 13.2532 250.131 13.4116 250.296C13.5738 250.465 13.7807 250.507 13.9359 250.507Z" fill="#0F0F0F" stroke="black"/>
  <path d="M29.6223 239.326H31.1869V251.829H29.6223V239.326Z" fill="#0F0F0F" stroke="black"/>
  <path d="M48.4752 240.08L48.4752 240.08L48.4788 240.084C48.9422 240.557 49.2071 241.255 49.2071 242.258V242.844H47.6425V242.385C47.6425 241.885 47.5468 241.413 47.2431 241.086L47.2374 241.079L47.2314 241.073C46.9145 240.754 46.4582 240.648 45.9812 240.648H44.6746C44.1891 240.648 43.7368 240.755 43.4118 241.062L43.4028 241.071L43.3943 241.079C43.0752 241.412 42.9891 241.894 42.9891 242.385V248.77C42.9891 249.255 43.0728 249.751 43.4002 250.081L43.4002 250.081L43.4057 250.087C43.7362 250.41 44.1978 250.507 44.6746 250.507H45.9812C46.4492 250.507 46.9153 250.411 47.2373 250.075C47.5492 249.75 47.6425 249.263 47.6425 248.77V247.458C47.6425 247.31 47.6074 247.107 47.449 246.941C47.2868 246.772 47.0799 246.731 46.9247 246.731H45.7795V245.409H49.2071V248.896C49.2071 249.904 48.9429 250.611 48.477 251.098C48.0153 251.568 47.3435 251.829 46.3925 251.829H44.2633C43.2912 251.829 42.6141 251.567 42.1537 251.097C41.7061 250.634 41.4487 249.927 41.4487 248.896V242.258C41.4487 241.231 41.7045 240.528 42.1537 240.058C42.6161 239.592 43.2952 239.326 44.2633 239.326H46.3925C47.3389 239.326 48.0113 239.596 48.4752 240.08Z" fill="#0F0F0F" stroke="black"/>
  <path d="M59.4501 239.326H61.0147V251.829H59.4501V239.326Z" fill="#0F0F0F" stroke="black"/>
  <path d="M74.8976 241.375V251.829H73.3329V241.375C73.3329 241.227 73.2979 241.024 73.1394 240.859C72.9772 240.689 72.7704 240.648 72.6152 240.648H70.4054V239.326H77.8493V240.648H75.6395C75.4899 240.648 75.2827 240.682 75.1139 240.841C74.9397 241.006 74.8976 241.217 74.8976 241.375Z" fill="#0F0F0F" stroke="black"/>
  <path d="M87.8993 251.829H86.339L89.4543 239.4C89.4637 239.376 89.4723 239.361 89.4781 239.353C89.4843 239.344 89.4881 239.341 89.4888 239.341L89.4888 239.341L89.4888 239.341C89.4896 239.34 89.4938 239.337 89.5056 239.334C89.5183 239.33 89.542 239.326 89.5801 239.326H92.2657C92.3289 239.326 92.3613 239.334 92.3745 239.339C92.3769 239.345 92.3804 239.354 92.3838 239.369L92.3837 239.369L92.3856 239.376L95.5069 251.829H93.9466C93.9456 251.824 93.9446 251.818 93.9436 251.813L93.941 251.798L93.9375 251.784L93.381 249.461L93.2891 249.078H92.8948H88.9753H88.5849L88.4902 249.457L87.9095 251.779L87.9011 251.812L87.8993 251.829ZM95.8036 251.829C95.8037 251.829 95.8032 251.829 95.802 251.829L95.8036 251.829ZM86.0437 251.829C86.0426 251.829 86.0421 251.829 86.0422 251.829L86.0437 251.829ZM90.8867 240.875H90.4908L90.4 241.26L88.9725 247.318L88.8277 247.933H89.4592H92.4351H93.0691L92.9213 247.316L91.4697 241.258L91.3778 240.875H90.9834H90.8867Z" fill="#0F0F0F" stroke="black"/>
  <path d="M111.533 250.507V251.829H105.081V239.326H106.646V249.755C106.646 249.907 106.68 250.119 106.844 250.291C107.013 250.466 107.228 250.507 107.388 250.507H111.533Z" fill="#0F0F0F" stroke="black"/>
  <path d="M133.686 250.075L133.697 250.087L133.709 250.097C134.065 250.426 134.622 250.507 135.184 250.507H136.128C136.681 250.507 137.208 250.403 137.562 250.066L137.562 250.066L137.567 250.061C137.927 249.708 138.031 249.132 138.031 248.518V248.265C138.031 247.704 137.792 247.239 137.324 246.94C136.93 246.669 136.459 246.524 135.933 246.48C135.484 246.432 134.997 246.354 134.474 246.239C133.945 246.111 133.463 245.961 133.026 245.783L133.026 245.783L133.018 245.78C132.682 245.65 132.367 245.373 132.087 244.889C131.834 244.431 131.692 243.817 131.692 243.016V242.258C131.692 241.278 131.955 240.57 132.422 240.082C132.899 239.596 133.58 239.326 134.531 239.326H136.539C137.506 239.326 138.184 239.598 138.646 240.08L138.646 240.08L138.65 240.084C139.129 240.574 139.402 241.282 139.402 242.258V242.616H137.862V242.536C137.862 241.973 137.755 241.432 137.397 241.093C137.051 240.742 136.493 240.648 135.934 240.648H135.16C134.578 240.648 134.023 240.761 133.681 241.136C133.5 241.327 133.4 241.58 133.342 241.832C133.282 242.092 133.257 242.398 133.257 242.738V243.142C133.257 243.636 133.475 244.048 133.882 244.329C134.259 244.59 134.77 244.722 135.356 244.775L135.356 244.775L135.364 244.776C136.463 244.861 137.415 245.084 138.224 245.442L138.224 245.442L138.234 245.446C138.597 245.597 138.913 245.883 139.179 246.344L139.179 246.344L139.181 246.349C139.445 246.795 139.596 247.388 139.596 248.165V248.896C139.596 249.878 139.323 250.58 138.844 251.07C138.359 251.561 137.681 251.829 136.757 251.829H134.555C133.604 251.829 132.924 251.559 132.447 251.073C131.979 250.584 131.716 249.883 131.716 248.896V248.513H133.257V248.644C133.257 249.198 133.353 249.727 133.686 250.075Z" fill="#0F0F0F" stroke="black"/>
  <path d="M156.025 250.507V251.829H149.621V239.326H156.025V240.648H151.928C151.778 240.648 151.571 240.682 151.402 240.841C151.228 241.006 151.186 241.217 151.186 241.375V244.101C151.186 244.259 151.228 244.47 151.402 244.635C151.571 244.794 151.778 244.828 151.928 244.828H155.275V246.15H151.928C151.778 246.15 151.571 246.184 151.402 246.343C151.228 246.508 151.186 246.719 151.186 246.877V249.78C151.186 249.938 151.228 250.149 151.402 250.314C151.571 250.473 151.778 250.507 151.928 250.507H156.025ZM156.022 251.943C156.022 251.945 156.022 251.945 156.022 251.945L156.022 251.943Z" fill="#0F0F0F" stroke="black"/>
  <path d="M172.08 246.595L171.779 246.726V247.054V247.13V247.239L171.824 247.338L173.884 251.829H172.448C172.343 251.829 172.262 251.824 172.202 251.815C172.194 251.814 172.186 251.813 172.18 251.812C172.17 251.793 172.157 251.768 172.145 251.733L172.138 251.714L172.13 251.696L170.098 247.153L169.966 246.857H169.641H168.311C168.161 246.857 167.954 246.891 167.785 247.05C167.611 247.215 167.569 247.426 167.569 247.584V251.829H166.004V239.326H170.73C171.654 239.326 172.332 239.594 172.817 240.085C173.296 240.575 173.569 241.282 173.569 242.258V243.899C173.569 244.63 173.431 245.198 173.186 245.629C172.945 246.054 172.584 246.376 172.08 246.595ZM171.54 245.291L171.54 245.291C171.871 244.966 172.004 244.516 172.004 244.025V242.385C172.004 241.883 171.881 241.415 171.54 241.093C171.211 240.759 170.738 240.648 170.246 240.648H168.287C168.131 240.648 167.925 240.689 167.762 240.859C167.604 241.024 167.569 241.227 167.569 241.375V244.984C167.569 245.132 167.604 245.335 167.762 245.501C167.925 245.67 168.131 245.711 168.287 245.711H170.246C170.728 245.711 171.206 245.618 171.54 245.291Z" fill="#0F0F0F" stroke="black"/>
  <path d="M185.874 251.798L185.872 251.789L185.87 251.78L182.784 239.326H184.551C184.551 239.33 184.552 239.334 184.553 239.339L184.554 239.347L184.556 239.354L186.661 249.703L186.742 250.103H187.151H187.248H187.656L187.738 249.703L189.842 239.357C189.845 239.344 189.848 239.334 189.85 239.326H191.615L188.528 251.78L188.528 251.78L188.526 251.788C188.523 251.805 188.519 251.819 188.515 251.829H185.893C185.889 251.829 185.885 251.829 185.882 251.829C185.879 251.821 185.877 251.811 185.874 251.798Z" fill="#0F0F0F" stroke="black"/>
  <path d="M201.08 239.326H202.645V251.829H201.08V239.326Z" fill="#0F0F0F" stroke="black"/>
  <path d="M220.006 240.08L220.006 240.08L220.009 240.084C220.473 240.557 220.738 241.255 220.738 242.258V243.197H219.173V242.385C219.173 241.885 219.077 241.413 218.774 241.086L218.768 241.079L218.762 241.073C218.442 240.751 217.977 240.648 217.488 240.648H216.133C215.647 240.648 215.195 240.755 214.87 241.062L214.861 241.071L214.852 241.079C214.533 241.412 214.447 241.894 214.447 242.385V248.77C214.447 249.255 214.531 249.751 214.858 250.081L214.858 250.081L214.864 250.087C215.194 250.41 215.656 250.507 216.133 250.507H217.488C217.968 250.507 218.443 250.414 218.768 250.075L218.431 249.752L218.768 250.075C219.08 249.75 219.173 249.263 219.173 248.77V247.958H220.738V248.896C220.738 249.904 220.474 250.611 220.008 251.098C219.546 251.568 218.874 251.829 217.923 251.829H215.721C214.749 251.829 214.072 251.567 213.612 251.097C213.164 250.634 212.907 249.927 212.907 248.896V242.258C212.907 241.231 213.163 240.528 213.612 240.058C214.074 239.592 214.753 239.326 215.721 239.326H217.923C218.87 239.326 219.542 239.596 220.006 240.08Z" fill="#0F0F0F" stroke="black"/>
  <path d="M237.074 250.507V251.829H230.671V239.326H237.074V240.648H232.977C232.827 240.648 232.62 240.682 232.451 240.841C232.277 241.006 232.235 241.217 232.235 241.375V244.101C232.235 244.259 232.277 244.47 232.451 244.635C232.62 244.794 232.827 244.828 232.977 244.828H236.324V246.15H232.977C232.827 246.15 232.62 246.184 232.451 246.343C232.277 246.508 232.235 246.719 232.235 246.877V249.78C232.235 249.938 232.277 250.149 232.451 250.314C232.62 250.473 232.827 250.507 232.977 250.507H237.074ZM237.071 251.943C237.071 251.945 237.071 251.945 237.071 251.945L237.071 251.943Z" fill="#0F0F0F" stroke="black"/>
</svg>
