<svg xmlns="http://www.w3.org/2000/svg" xmlns:xlink="http://www.w3.org/1999/xlink" width="500" zoomAndPan="magnify" viewBox="0 0 375 374.999991" height="500" preserveAspectRatio="xMidYMid meet" version="1.0"><defs><g/><clipPath id="c6f149b2c9"><path d="M 33.285156 80 L 186 80 L 186 214.328125 L 33.285156 214.328125 Z M 33.285156 80 " clip-rule="nonzero"/></clipPath><clipPath id="a02bfa2777"><path d="M 185 9.796875 L 338.40625 9.796875 L 338.40625 145 L 185 145 Z M 185 9.796875 " clip-rule="nonzero"/></clipPath></defs><g clip-path="url(#c6f149b2c9)"><path fill="#53c432" d="M 135.9375 175.53125 L 135.9375 194.085938 L 51.902344 155.042969 L 51.902344 139.988281 L 135.9375 100.945312 L 135.9375 119.507812 L 72.382812 147.339844 L 72.382812 147.691406 Z M 185.84375 80.324219 L 45.3125 80.324219 C 38.675781 80.324219 33.296875 85.703125 33.296875 92.339844 L 33.296875 202.691406 C 33.296875 209.324219 38.675781 214.703125 45.3125 214.703125 L 146.832031 214.703125 L 185.84375 80.324219 " fill-opacity="1" fill-rule="nonzero"/></g><g clip-path="url(#a02bfa2777)"><path fill="#53c432" d="M 319.558594 85.097656 L 235.527344 123.617188 L 235.527344 105.054688 L 300.476562 77.222656 L 300.476562 76.871094 L 235.527344 49.03125 L 235.527344 30.476562 L 319.558594 68.992188 Z M 224.859375 9.855469 L 185.84375 144.234375 L 326.152344 144.234375 C 332.785156 144.234375 338.164062 138.855469 338.164062 132.21875 L 338.164062 21.867188 C 338.164062 15.234375 332.785156 9.855469 326.152344 9.855469 L 224.859375 9.855469 " fill-opacity="1" fill-rule="nonzero"/></g><g fill="#ffffff" fill-opacity="1"><g transform="translate(2.24997, 308.576928)"><g><path d="M 12.84375 0 L 6.53125 0 C 5.46875 0 4.9375 -0.53125 4.9375 -1.59375 L 4.9375 -47.265625 C 4.9375 -48.335938 5.46875 -48.875 6.53125 -48.875 L 12.234375 -48.875 C 13.296875 -48.875 14.003906 -48.515625 14.359375 -47.796875 L 29.71875 -19 L 30.015625 -19 L 30.015625 -47.265625 C 30.015625 -48.335938 30.546875 -48.875 31.609375 -48.875 L 37.921875 -48.875 C 38.984375 -48.875 39.515625 -48.335938 39.515625 -47.265625 L 39.515625 -1.59375 C 39.515625 -0.53125 38.984375 0 37.921875 0 L 32.375 0 C 31.257812 0 30.445312 -0.503906 29.9375 -1.515625 L 14.75 -29.796875 L 14.4375 -29.796875 L 14.4375 -1.59375 C 14.4375 -0.53125 13.90625 0 12.84375 0 Z M 12.84375 0 "/></g></g></g><g fill="#ffffff" fill-opacity="1"><g transform="translate(50.04938, 308.576928)"><g><path d="M 31.390625 0 L 6.53125 0 C 5.46875 0 4.9375 -0.53125 4.9375 -1.59375 L 4.9375 -47.265625 C 4.9375 -48.335938 5.46875 -48.875 6.53125 -48.875 L 31.390625 -48.875 C 32.398438 -48.875 32.90625 -48.335938 32.90625 -47.265625 L 32.90625 -42.109375 C 32.90625 -41.046875 32.398438 -40.515625 31.390625 -40.515625 L 15.5 -40.515625 C 14.894531 -40.515625 14.59375 -40.234375 14.59375 -39.671875 L 14.59375 -29.796875 C 14.59375 -29.234375 14.894531 -28.953125 15.5 -28.953125 L 28.5 -28.953125 C 29.5625 -28.953125 30.09375 -28.421875 30.09375 -27.359375 L 30.09375 -22.1875 C 30.09375 -21.125 29.5625 -20.59375 28.5 -20.59375 L 15.5 -20.59375 C 14.894531 -20.59375 14.59375 -20.316406 14.59375 -19.765625 L 14.59375 -9.203125 C 14.59375 -8.640625 14.894531 -8.359375 15.5 -8.359375 L 31.390625 -8.359375 C 32.398438 -8.359375 32.90625 -7.828125 32.90625 -6.765625 L 32.90625 -1.59375 C 32.90625 -0.53125 32.398438 0 31.390625 0 Z M 31.390625 0 "/></g></g></g><g fill="#ffffff" fill-opacity="1"><g transform="translate(89.793614, 308.576928)"><g><path d="M 10.484375 0 L 2.96875 0 C 2.457031 0 2.097656 -0.160156 1.890625 -0.484375 C 1.691406 -0.816406 1.695312 -1.210938 1.90625 -1.671875 L 13.6875 -25 L 2.28125 -47.203125 C 2.070312 -47.597656 2.066406 -47.972656 2.265625 -48.328125 C 2.472656 -48.691406 2.832031 -48.875 3.34375 -48.875 L 10.640625 -48.875 C 11.910156 -48.875 12.742188 -48.335938 13.140625 -47.265625 L 20.375 -30.9375 L 20.671875 -30.9375 L 27.8125 -47.265625 C 28.320312 -48.335938 29.132812 -48.875 30.25 -48.875 L 37.703125 -48.875 C 38.203125 -48.875 38.566406 -48.679688 38.796875 -48.296875 C 39.023438 -47.921875 39.039062 -47.53125 38.84375 -47.125 L 27.28125 -25 L 39.0625 -1.75 C 39.3125 -1.238281 39.335938 -0.816406 39.140625 -0.484375 C 38.941406 -0.160156 38.5625 0 38 0 L 30.40625 0 C 29.332031 0 28.597656 -0.503906 28.203125 -1.515625 L 20.671875 -17.9375 L 20.375 -17.9375 L 12.765625 -1.515625 C 12.304688 -0.503906 11.546875 0 10.484375 0 Z M 10.484375 0 "/></g></g></g><g fill="#ffffff" fill-opacity="1"><g transform="translate(134.173385, 308.576928)"><g><path d="M 29.9375 -48.875 L 36.328125 -48.875 C 37.441406 -48.875 38 -48.363281 38 -47.34375 L 38 -12.390625 C 38 -8.429688 36.894531 -5.375 34.6875 -3.21875 C 32.488281 -1.070312 29.410156 0 25.453125 0 L 17.09375 0 C 13.09375 0 10.003906 -1.0625 7.828125 -3.1875 C 5.648438 -5.320312 4.5625 -8.390625 4.5625 -12.390625 L 4.5625 -47.265625 C 4.5625 -48.335938 5.09375 -48.875 6.15625 -48.875 L 12.609375 -48.875 C 13.679688 -48.875 14.21875 -48.335938 14.21875 -47.265625 L 14.21875 -12.84375 C 14.21875 -11.21875 14.554688 -10.0625 15.234375 -9.375 C 15.921875 -8.695312 17.050781 -8.359375 18.625 -8.359375 L 23.859375 -8.359375 C 25.484375 -8.359375 26.632812 -8.695312 27.3125 -9.375 C 28 -10.0625 28.34375 -11.21875 28.34375 -12.84375 L 28.34375 -47.265625 C 28.34375 -48.335938 28.875 -48.875 29.9375 -48.875 Z M 29.9375 -48.875 "/></g></g></g><g fill="#ffffff" fill-opacity="1"><g transform="translate(180.072985, 308.576928)"><g><path d="M 3.71875 -12.46875 L 3.71875 -13.984375 C 3.71875 -15.046875 4.25 -15.578125 5.3125 -15.578125 L 11.78125 -15.578125 C 12.84375 -15.578125 13.375 -15.046875 13.375 -13.984375 L 13.375 -13.375 C 13.375 -11.445312 13.753906 -10.128906 14.515625 -9.421875 C 15.273438 -8.710938 16.671875 -8.359375 18.703125 -8.359375 L 22.265625 -8.359375 C 24.242188 -8.359375 25.625 -8.738281 26.40625 -9.5 C 27.195312 -10.257812 27.59375 -11.675781 27.59375 -13.75 L 27.59375 -14.671875 C 27.59375 -16.140625 26.992188 -17.265625 25.796875 -18.046875 C 24.609375 -18.835938 23.128906 -19.304688 21.359375 -19.453125 C 19.585938 -19.609375 17.675781 -19.898438 15.625 -20.328125 C 13.570312 -20.753906 11.65625 -21.3125 9.875 -22 C 8.101562 -22.6875 6.617188 -24.03125 5.421875 -26.03125 C 4.234375 -28.03125 3.640625 -30.601562 3.640625 -33.75 L 3.640625 -36.40625 C 3.640625 -40.351562 4.753906 -43.414062 6.984375 -45.59375 C 9.222656 -47.78125 12.316406 -48.875 16.265625 -48.875 L 23.859375 -48.875 C 27.867188 -48.875 30.988281 -47.78125 33.21875 -45.59375 C 35.445312 -43.414062 36.5625 -40.351562 36.5625 -36.40625 L 36.5625 -34.953125 C 36.5625 -33.890625 36.023438 -33.359375 34.953125 -33.359375 L 28.5 -33.359375 C 27.4375 -33.359375 26.90625 -33.890625 26.90625 -34.953125 L 26.90625 -35.421875 C 26.90625 -37.390625 26.523438 -38.726562 25.765625 -39.4375 C 25.003906 -40.15625 23.609375 -40.515625 21.578125 -40.515625 L 18.625 -40.515625 C 16.539062 -40.515625 15.128906 -40.117188 14.390625 -39.328125 C 13.660156 -38.546875 13.296875 -37.015625 13.296875 -34.734375 L 13.296875 -33.28125 C 13.296875 -30.90625 15.375 -29.539062 19.53125 -29.1875 C 23.832031 -28.832031 27.660156 -27.96875 31.015625 -26.59375 C 32.785156 -25.832031 34.265625 -24.476562 35.453125 -22.53125 C 36.640625 -20.582031 37.234375 -18.085938 37.234375 -15.046875 L 37.234375 -12.46875 C 37.234375 -8.507812 36.117188 -5.441406 33.890625 -3.265625 C 31.660156 -1.085938 28.570312 0 24.625 0 L 16.34375 0 C 12.382812 0 9.289062 -1.085938 7.0625 -3.265625 C 4.832031 -5.441406 3.71875 -8.507812 3.71875 -12.46875 Z M 3.71875 -12.46875 "/></g></g></g><g fill="#ffffff" fill-opacity="1"><g transform="translate(224.376755, 308.576928)"><g/></g></g><g fill="#ffffff" fill-opacity="1"><g transform="translate(244.439068, 308.576928)"><g><path d="M 15.421875 -8.359375 L 23.71875 -8.359375 C 25.332031 -8.359375 26.484375 -8.695312 27.171875 -9.375 C 27.859375 -10.0625 28.203125 -11.21875 28.203125 -12.84375 L 28.203125 -36.03125 C 28.203125 -37.644531 27.859375 -38.796875 27.171875 -39.484375 C 26.484375 -40.171875 25.332031 -40.515625 23.71875 -40.515625 L 15.421875 -40.515625 C 14.867188 -40.515625 14.59375 -40.234375 14.59375 -39.671875 L 14.59375 -9.203125 C 14.59375 -8.640625 14.867188 -8.359375 15.421875 -8.359375 Z M 4.9375 -1.59375 L 4.9375 -47.265625 C 4.9375 -48.335938 5.46875 -48.875 6.53125 -48.875 L 25.3125 -48.875 C 29.257812 -48.875 32.332031 -47.796875 34.53125 -45.640625 C 36.738281 -43.484375 37.84375 -40.429688 37.84375 -36.484375 L 37.84375 -12.390625 C 37.84375 -8.429688 36.738281 -5.375 34.53125 -3.21875 C 32.332031 -1.070312 29.257812 0 25.3125 0 L 6.53125 0 C 5.46875 0 4.9375 -0.53125 4.9375 -1.59375 Z M 4.9375 -1.59375 "/></g></g></g><g fill="#ffffff" fill-opacity="1"><g transform="translate(289.806733, 308.576928)"><g><path d="M 31.390625 0 L 6.53125 0 C 5.46875 0 4.9375 -0.53125 4.9375 -1.59375 L 4.9375 -47.265625 C 4.9375 -48.335938 5.46875 -48.875 6.53125 -48.875 L 31.390625 -48.875 C 32.398438 -48.875 32.90625 -48.335938 32.90625 -47.265625 L 32.90625 -42.109375 C 32.90625 -41.046875 32.398438 -40.515625 31.390625 -40.515625 L 15.5 -40.515625 C 14.894531 -40.515625 14.59375 -40.234375 14.59375 -39.671875 L 14.59375 -29.796875 C 14.59375 -29.234375 14.894531 -28.953125 15.5 -28.953125 L 28.5 -28.953125 C 29.5625 -28.953125 30.09375 -28.421875 30.09375 -27.359375 L 30.09375 -22.1875 C 30.09375 -21.125 29.5625 -20.59375 28.5 -20.59375 L 15.5 -20.59375 C 14.894531 -20.59375 14.59375 -20.316406 14.59375 -19.765625 L 14.59375 -9.203125 C 14.59375 -8.640625 14.894531 -8.359375 15.5 -8.359375 L 31.390625 -8.359375 C 32.398438 -8.359375 32.90625 -7.828125 32.90625 -6.765625 L 32.90625 -1.59375 C 32.90625 -0.53125 32.398438 0 31.390625 0 Z M 31.390625 0 "/></g></g></g><g fill="#ffffff" fill-opacity="1"><g transform="translate(329.550967, 308.576928)"><g><path d="M 24.859375 0 L 14.890625 0 C 13.828125 0 13.195312 -0.53125 13 -1.59375 L 1.21875 -47.125 C 0.863281 -48.289062 1.367188 -48.875 2.734375 -48.875 L 9.875 -48.875 C 10.894531 -48.875 11.503906 -48.335938 11.703125 -47.265625 L 19.6875 -9.875 L 19.984375 -9.875 L 27.96875 -47.265625 C 28.164062 -48.335938 28.773438 -48.875 29.796875 -48.875 L 36.9375 -48.875 C 38.207031 -48.875 38.710938 -48.289062 38.453125 -47.125 L 26.671875 -1.59375 C 26.421875 -0.53125 25.816406 0 24.859375 0 Z M 24.859375 0 "/></g></g></g><g fill="#ffffff" fill-opacity="1"><g transform="translate(20.662645, 358.424444)"><g><path d="M 5.890625 -3.1875 L 9.0625 -3.1875 C 9.675781 -3.1875 10.113281 -3.316406 10.375 -3.578125 C 10.644531 -3.847656 10.78125 -4.289062 10.78125 -4.90625 L 10.78125 -13.765625 C 10.78125 -14.390625 10.644531 -14.832031 10.375 -15.09375 C 10.113281 -15.351562 9.675781 -15.484375 9.0625 -15.484375 L 5.890625 -15.484375 C 5.679688 -15.484375 5.578125 -15.375 5.578125 -15.15625 L 5.578125 -3.515625 C 5.578125 -3.296875 5.679688 -3.1875 5.890625 -3.1875 Z M 1.890625 -0.609375 L 1.890625 -18.0625 C 1.890625 -18.46875 2.09375 -18.671875 2.5 -18.671875 L 9.671875 -18.671875 C 11.179688 -18.671875 12.359375 -18.257812 13.203125 -17.4375 C 14.046875 -16.613281 14.46875 -15.445312 14.46875 -13.9375 L 14.46875 -4.734375 C 14.46875 -3.222656 14.046875 -2.054688 13.203125 -1.234375 C 12.359375 -0.410156 11.179688 0 9.671875 0 L 2.5 0 C 2.09375 0 1.890625 -0.203125 1.890625 -0.609375 Z M 1.890625 -0.609375 "/></g></g></g><g fill="#ffffff" fill-opacity="1"><g transform="translate(46.462367, 358.424444)"><g><path d="M 5.71875 -18.0625 L 5.71875 -0.609375 C 5.71875 -0.203125 5.515625 0 5.109375 0 L 2.640625 0 C 2.234375 0 2.03125 -0.203125 2.03125 -0.609375 L 2.03125 -18.0625 C 2.03125 -18.46875 2.234375 -18.671875 2.640625 -18.671875 L 5.109375 -18.671875 C 5.515625 -18.671875 5.71875 -18.46875 5.71875 -18.0625 Z M 5.71875 -18.0625 "/></g></g></g><g fill="#ffffff" fill-opacity="1"><g transform="translate(63.953734, 358.424444)"><g><path d="M 9.46875 0 L 6.390625 0 C 4.859375 0 3.675781 -0.40625 2.84375 -1.21875 C 2.007812 -2.03125 1.59375 -3.203125 1.59375 -4.734375 L 1.59375 -13.9375 C 1.59375 -15.46875 2.007812 -16.640625 2.84375 -17.453125 C 3.675781 -18.265625 4.859375 -18.671875 6.390625 -18.671875 L 9.46875 -18.671875 C 10.976562 -18.671875 12.148438 -18.257812 12.984375 -17.4375 C 13.816406 -16.613281 14.234375 -15.445312 14.234375 -13.9375 L 14.234375 -13.078125 C 14.234375 -12.648438 14.03125 -12.4375 13.625 -12.4375 L 11.15625 -12.4375 C 10.75 -12.4375 10.546875 -12.648438 10.546875 -13.078125 L 10.546875 -13.765625 C 10.546875 -14.390625 10.414062 -14.832031 10.15625 -15.09375 C 9.90625 -15.351562 9.472656 -15.484375 8.859375 -15.484375 L 6.96875 -15.484375 C 6.375 -15.484375 5.941406 -15.351562 5.671875 -15.09375 C 5.410156 -14.832031 5.28125 -14.390625 5.28125 -13.765625 L 5.28125 -4.90625 C 5.28125 -4.289062 5.410156 -3.847656 5.671875 -3.578125 C 5.941406 -3.316406 6.375 -3.1875 6.96875 -3.1875 L 8.859375 -3.1875 C 9.472656 -3.1875 9.90625 -3.316406 10.15625 -3.578125 C 10.414062 -3.847656 10.546875 -4.289062 10.546875 -4.90625 L 10.546875 -6.734375 C 10.546875 -6.953125 10.4375 -7.0625 10.21875 -7.0625 L 8.484375 -7.0625 C 8.078125 -7.0625 7.875 -7.265625 7.875 -7.671875 L 7.875 -9.640625 C 7.875 -10.046875 8.078125 -10.25 8.484375 -10.25 L 13.5625 -10.25 C 14.007812 -10.25 14.234375 -10.023438 14.234375 -9.578125 L 14.234375 -4.734375 C 14.234375 -3.222656 13.816406 -2.054688 12.984375 -1.234375 C 12.148438 -0.410156 10.976562 0 9.46875 0 Z M 9.46875 0 "/></g></g></g><g fill="#ffffff" fill-opacity="1"><g transform="translate(89.52105, 358.424444)"><g><path d="M 5.71875 -18.0625 L 5.71875 -0.609375 C 5.71875 -0.203125 5.515625 0 5.109375 0 L 2.640625 0 C 2.234375 0 2.03125 -0.203125 2.03125 -0.609375 L 2.03125 -18.0625 C 2.03125 -18.46875 2.234375 -18.671875 2.640625 -18.671875 L 5.109375 -18.671875 C 5.515625 -18.671875 5.71875 -18.46875 5.71875 -18.0625 Z M 5.71875 -18.0625 "/></g></g></g><g fill="#ffffff" fill-opacity="1"><g transform="translate(107.012417, 358.424444)"><g><path d="M 7.671875 0 L 5.234375 0 C 4.804688 0 4.59375 -0.203125 4.59375 -0.609375 L 4.59375 -15.15625 C 4.59375 -15.375 4.484375 -15.484375 4.265625 -15.484375 L 0.953125 -15.484375 C 0.546875 -15.484375 0.34375 -15.6875 0.34375 -16.09375 L 0.34375 -18.0625 C 0.34375 -18.46875 0.546875 -18.671875 0.953125 -18.671875 L 11.9375 -18.671875 C 12.34375 -18.671875 12.546875 -18.46875 12.546875 -18.0625 L 12.546875 -16.09375 C 12.546875 -15.6875 12.34375 -15.484375 11.9375 -15.484375 L 8.625 -15.484375 C 8.394531 -15.484375 8.28125 -15.375 8.28125 -15.15625 L 8.28125 -0.609375 C 8.28125 -0.203125 8.078125 0 7.671875 0 Z M 7.671875 0 "/></g></g></g><g fill="#ffffff" fill-opacity="1"><g transform="translate(129.616616, 358.424444)"><g><path d="M 3.828125 0 L 1.046875 0 C 0.691406 0 0.578125 -0.203125 0.703125 -0.609375 L 5.28125 -18.0625 C 5.414062 -18.46875 5.707031 -18.671875 6.15625 -18.671875 L 10.015625 -18.671875 C 10.503906 -18.671875 10.796875 -18.46875 10.890625 -18.0625 L 15.484375 -0.609375 C 15.597656 -0.203125 15.484375 0 15.140625 0 L 12.34375 0 C 12.132812 0 11.988281 -0.0390625 11.90625 -0.125 C 11.832031 -0.21875 11.773438 -0.378906 11.734375 -0.609375 L 10.921875 -3.8125 L 5.25 -3.8125 L 4.4375 -0.609375 C 4.40625 -0.378906 4.34375 -0.21875 4.25 -0.125 C 4.164062 -0.0390625 4.023438 0 3.828125 0 Z M 8.046875 -15.15625 L 5.953125 -6.765625 L 10.25 -6.765625 L 8.15625 -15.15625 Z M 8.046875 -15.15625 "/></g></g></g><g fill="#ffffff" fill-opacity="1"><g transform="translate(155.532527, 358.424444)"><g><path d="M 12.046875 0 L 2.5 0 C 2.09375 0 1.890625 -0.203125 1.890625 -0.609375 L 1.890625 -18.0625 C 1.890625 -18.46875 2.09375 -18.671875 2.5 -18.671875 L 4.96875 -18.671875 C 5.375 -18.671875 5.578125 -18.46875 5.578125 -18.0625 L 5.578125 -3.546875 C 5.578125 -3.328125 5.691406 -3.21875 5.921875 -3.21875 L 12.046875 -3.21875 C 12.441406 -3.21875 12.640625 -3.003906 12.640625 -2.578125 L 12.640625 -0.609375 C 12.640625 -0.203125 12.441406 0 12.046875 0 Z M 12.046875 0 "/></g></g></g><g fill="#ffffff" fill-opacity="1"><g transform="translate(178.311035, 358.424444)"><g/></g></g><g fill="#ffffff" fill-opacity="1"><g transform="translate(194.437033, 358.424444)"><g><path d="M 1.421875 -4.765625 L 1.421875 -5.34375 C 1.421875 -5.75 1.625 -5.953125 2.03125 -5.953125 L 4.5 -5.953125 C 4.90625 -5.953125 5.109375 -5.75 5.109375 -5.34375 L 5.109375 -5.109375 C 5.109375 -4.378906 5.253906 -3.875 5.546875 -3.59375 C 5.835938 -3.320312 6.367188 -3.1875 7.140625 -3.1875 L 8.515625 -3.1875 C 9.265625 -3.1875 9.789062 -3.332031 10.09375 -3.625 C 10.394531 -3.914062 10.546875 -4.457031 10.546875 -5.25 L 10.546875 -5.609375 C 10.546875 -6.171875 10.316406 -6.597656 9.859375 -6.890625 C 9.398438 -7.191406 8.832031 -7.367188 8.15625 -7.421875 C 7.476562 -7.484375 6.75 -7.597656 5.96875 -7.765625 C 5.1875 -7.929688 4.457031 -8.144531 3.78125 -8.40625 C 3.101562 -8.664062 2.535156 -9.175781 2.078125 -9.9375 C 1.617188 -10.707031 1.390625 -11.691406 1.390625 -12.890625 L 1.390625 -13.90625 C 1.390625 -15.414062 1.816406 -16.585938 2.671875 -17.421875 C 3.523438 -18.253906 4.707031 -18.671875 6.21875 -18.671875 L 9.125 -18.671875 C 10.65625 -18.671875 11.84375 -18.253906 12.6875 -17.421875 C 13.539062 -16.585938 13.96875 -15.414062 13.96875 -13.90625 L 13.96875 -13.359375 C 13.96875 -12.953125 13.765625 -12.75 13.359375 -12.75 L 10.890625 -12.75 C 10.484375 -12.75 10.28125 -12.953125 10.28125 -13.359375 L 10.28125 -13.53125 C 10.28125 -14.289062 10.132812 -14.804688 9.84375 -15.078125 C 9.550781 -15.347656 9.019531 -15.484375 8.25 -15.484375 L 7.109375 -15.484375 C 6.316406 -15.484375 5.78125 -15.332031 5.5 -15.03125 C 5.21875 -14.726562 5.078125 -14.144531 5.078125 -13.28125 L 5.078125 -12.71875 C 5.078125 -11.8125 5.875 -11.289062 7.46875 -11.15625 C 9.113281 -11.019531 10.570312 -10.691406 11.84375 -10.171875 C 12.53125 -9.878906 13.097656 -9.359375 13.546875 -8.609375 C 14.003906 -7.867188 14.234375 -6.914062 14.234375 -5.75 L 14.234375 -4.765625 C 14.234375 -3.253906 13.804688 -2.082031 12.953125 -1.25 C 12.097656 -0.414062 10.914062 0 9.40625 0 L 6.25 0 C 4.738281 0 3.554688 -0.414062 2.703125 -1.25 C 1.847656 -2.082031 1.421875 -3.253906 1.421875 -4.765625 Z M 1.421875 -4.765625 "/></g></g></g><g fill="#ffffff" fill-opacity="1"><g transform="translate(219.830039, 358.424444)"><g><path d="M 12 0 L 2.5 0 C 2.09375 0 1.890625 -0.203125 1.890625 -0.609375 L 1.890625 -18.0625 C 1.890625 -18.46875 2.09375 -18.671875 2.5 -18.671875 L 12 -18.671875 C 12.382812 -18.671875 12.578125 -18.46875 12.578125 -18.0625 L 12.578125 -16.09375 C 12.578125 -15.6875 12.382812 -15.484375 12 -15.484375 L 5.921875 -15.484375 C 5.691406 -15.484375 5.578125 -15.375 5.578125 -15.15625 L 5.578125 -11.390625 C 5.578125 -11.171875 5.691406 -11.0625 5.921875 -11.0625 L 10.890625 -11.0625 C 11.296875 -11.0625 11.5 -10.859375 11.5 -10.453125 L 11.5 -8.484375 C 11.5 -8.078125 11.296875 -7.875 10.890625 -7.875 L 5.921875 -7.875 C 5.691406 -7.875 5.578125 -7.765625 5.578125 -7.546875 L 5.578125 -3.515625 C 5.578125 -3.296875 5.691406 -3.1875 5.921875 -3.1875 L 12 -3.1875 C 12.382812 -3.1875 12.578125 -2.984375 12.578125 -2.578125 L 12.578125 -0.609375 C 12.578125 -0.203125 12.382812 0 12 0 Z M 12 0 "/></g></g></g><g fill="#ffffff" fill-opacity="1"><g transform="translate(243.480047, 358.424444)"><g><path d="M 4.96875 0 L 2.5 0 C 2.09375 0 1.890625 -0.203125 1.890625 -0.609375 L 1.890625 -18.0625 C 1.890625 -18.46875 2.09375 -18.671875 2.5 -18.671875 L 9.40625 -18.671875 C 10.914062 -18.671875 12.097656 -18.253906 12.953125 -17.421875 C 13.804688 -16.585938 14.234375 -15.414062 14.234375 -13.90625 L 14.234375 -11.640625 C 14.234375 -9.453125 13.367188 -8.003906 11.640625 -7.296875 L 11.640625 -7.171875 L 14.75 -0.703125 C 14.925781 -0.234375 14.765625 0 14.265625 0 L 11.90625 0 C 11.5625 0 11.3125 -0.0351562 11.15625 -0.109375 C 11 -0.191406 10.875 -0.359375 10.78125 -0.609375 L 7.875 -6.890625 L 5.921875 -6.890625 C 5.691406 -6.890625 5.578125 -6.78125 5.578125 -6.5625 L 5.578125 -0.609375 C 5.578125 -0.203125 5.375 0 4.96875 0 Z M 5.890625 -9.84375 L 8.75 -9.84375 C 9.363281 -9.84375 9.816406 -9.972656 10.109375 -10.234375 C 10.398438 -10.492188 10.546875 -10.914062 10.546875 -11.5 L 10.546875 -13.765625 C 10.546875 -14.367188 10.398438 -14.804688 10.109375 -15.078125 C 9.816406 -15.347656 9.363281 -15.484375 8.75 -15.484375 L 5.890625 -15.484375 C 5.679688 -15.484375 5.578125 -15.375 5.578125 -15.15625 L 5.578125 -10.171875 C 5.578125 -9.953125 5.679688 -9.84375 5.890625 -9.84375 Z M 5.890625 -9.84375 "/></g></g></g><g fill="#ffffff" fill-opacity="1"><g transform="translate(269.105471, 358.424444)"><g><path d="M 9.5 0 L 5.6875 0 C 5.28125 0 5.039062 -0.203125 4.96875 -0.609375 L 0.46875 -18.015625 C 0.332031 -18.453125 0.523438 -18.671875 1.046875 -18.671875 L 3.78125 -18.671875 C 4.164062 -18.671875 4.394531 -18.46875 4.46875 -18.0625 L 7.515625 -3.78125 L 7.640625 -3.78125 L 10.6875 -18.0625 C 10.769531 -18.46875 11.003906 -18.671875 11.390625 -18.671875 L 14.109375 -18.671875 C 14.597656 -18.671875 14.796875 -18.453125 14.703125 -18.015625 L 10.203125 -0.609375 C 10.097656 -0.203125 9.863281 0 9.5 0 Z M 9.5 0 "/></g></g></g><g fill="#ffffff" fill-opacity="1"><g transform="translate(293.975586, 358.424444)"><g><path d="M 5.71875 -18.0625 L 5.71875 -0.609375 C 5.71875 -0.203125 5.515625 0 5.109375 0 L 2.640625 0 C 2.234375 0 2.03125 -0.203125 2.03125 -0.609375 L 2.03125 -18.0625 C 2.03125 -18.46875 2.234375 -18.671875 2.640625 -18.671875 L 5.109375 -18.671875 C 5.515625 -18.671875 5.71875 -18.46875 5.71875 -18.0625 Z M 5.71875 -18.0625 "/></g></g></g><g fill="#ffffff" fill-opacity="1"><g transform="translate(311.466966, 358.424444)"><g><path d="M 9.5625 0 L 6.390625 0 C 4.859375 0 3.675781 -0.40625 2.84375 -1.21875 C 2.007812 -2.03125 1.59375 -3.203125 1.59375 -4.734375 L 1.59375 -13.9375 C 1.59375 -15.46875 2.007812 -16.640625 2.84375 -17.453125 C 3.675781 -18.265625 4.859375 -18.671875 6.390625 -18.671875 L 9.5625 -18.671875 C 11.070312 -18.671875 12.242188 -18.257812 13.078125 -17.4375 C 13.921875 -16.613281 14.34375 -15.445312 14.34375 -13.9375 L 14.34375 -12.578125 C 14.34375 -12.148438 14.128906 -11.9375 13.703125 -11.9375 L 11.265625 -11.9375 C 10.859375 -11.9375 10.65625 -12.148438 10.65625 -12.578125 L 10.65625 -13.765625 C 10.65625 -14.390625 10.523438 -14.832031 10.265625 -15.09375 C 10.003906 -15.351562 9.566406 -15.484375 8.953125 -15.484375 L 6.96875 -15.484375 C 6.375 -15.484375 5.941406 -15.351562 5.671875 -15.09375 C 5.410156 -14.832031 5.28125 -14.390625 5.28125 -13.765625 L 5.28125 -4.90625 C 5.28125 -4.289062 5.410156 -3.847656 5.671875 -3.578125 C 5.941406 -3.316406 6.375 -3.1875 6.96875 -3.1875 L 8.953125 -3.1875 C 9.566406 -3.1875 10.003906 -3.316406 10.265625 -3.578125 C 10.523438 -3.847656 10.65625 -4.289062 10.65625 -4.90625 L 10.65625 -6.09375 C 10.65625 -6.519531 10.859375 -6.734375 11.265625 -6.734375 L 13.703125 -6.734375 C 14.128906 -6.734375 14.34375 -6.519531 14.34375 -6.09375 L 14.34375 -4.734375 C 14.34375 -3.222656 13.921875 -2.054688 13.078125 -1.234375 C 12.242188 -0.410156 11.070312 0 9.5625 0 Z M 9.5625 0 "/></g></g></g><g fill="#ffffff" fill-opacity="1"><g transform="translate(336.83095, 358.424444)"><g><path d="M 12 0 L 2.5 0 C 2.09375 0 1.890625 -0.203125 1.890625 -0.609375 L 1.890625 -18.0625 C 1.890625 -18.46875 2.09375 -18.671875 2.5 -18.671875 L 12 -18.671875 C 12.382812 -18.671875 12.578125 -18.46875 12.578125 -18.0625 L 12.578125 -16.09375 C 12.578125 -15.6875 12.382812 -15.484375 12 -15.484375 L 5.921875 -15.484375 C 5.691406 -15.484375 5.578125 -15.375 5.578125 -15.15625 L 5.578125 -11.390625 C 5.578125 -11.171875 5.691406 -11.0625 5.921875 -11.0625 L 10.890625 -11.0625 C 11.296875 -11.0625 11.5 -10.859375 11.5 -10.453125 L 11.5 -8.484375 C 11.5 -8.078125 11.296875 -7.875 10.890625 -7.875 L 5.921875 -7.875 C 5.691406 -7.875 5.578125 -7.765625 5.578125 -7.546875 L 5.578125 -3.515625 C 5.578125 -3.296875 5.691406 -3.1875 5.921875 -3.1875 L 12 -3.1875 C 12.382812 -3.1875 12.578125 -2.984375 12.578125 -2.578125 L 12.578125 -0.609375 C 12.578125 -0.203125 12.382812 0 12 0 Z M 12 0 "/></g></g></g></svg>